<svg width="512" height="512" viewBox="0 0 512 512" fill="none" xmlns="http://www.w3.org/2000/svg">
<path d="M166.004 103.195C157.82 108.734 146.609 116.32 146.609 131.773C146.609 137.297 151.086 141.773 156.609 141.773C162.133 141.773 166.609 137.297 166.609 131.773C166.609 127.371 169.676 124.859 177.211 119.762C185.398 114.223 196.609 106.637 196.609 91.1797C196.609 75.7227 185.398 68.1406 177.211 62.6016C169.676 57.5039 166.609 54.9922 166.609 50.5898C166.609 46.1875 169.676 43.6758 177.211 38.5781C185.398 33.0391 196.609 25.457 196.609 10C196.609 4.48047 192.129 0 186.609 0C181.086 0 176.609 4.48047 176.609 10C176.609 14.4023 173.539 16.9141 166.004 22.0117C157.82 27.5508 146.609 35.1328 146.609 50.5898C146.609 66.0469 157.816 73.6289 166.004 79.168C173.539 84.2656 176.609 86.7773 176.609 91.1836C176.609 95.5859 173.539 98.0977 166.004 103.195Z" fill="#FF2930"/>
<path d="M234.988 103.195C226.805 108.734 215.594 116.316 215.594 131.773C215.594 137.297 220.07 141.773 225.594 141.773C231.117 141.773 235.594 137.297 235.594 131.773C235.594 127.371 238.66 124.859 246.195 119.762C254.383 114.223 265.594 106.637 265.594 91.1797C265.594 75.7227 254.383 68.1406 246.195 62.6016C238.66 57.5039 235.59 54.9922 235.59 50.5898C235.59 46.1875 238.66 43.6758 246.195 38.5781C254.383 33.0391 265.594 25.4531 265.594 10C265.594 4.47656 261.113 0 255.594 0C250.07 0 245.594 4.47656 245.594 10C245.594 14.3984 242.523 16.9141 234.988 22.0117C226.801 27.5508 215.59 35.1328 215.59 50.5898C215.59 66.043 226.801 73.6289 234.988 79.1641C242.523 84.2656 245.594 86.7773 245.594 91.1797C245.594 95.5859 242.527 98.0977 234.988 103.195Z" fill="#FF2930"/>
<path d="M303.973 103.195C295.789 108.734 284.578 116.32 284.578 131.773C284.578 137.297 289.055 141.773 294.578 141.773C300.102 141.773 304.578 137.297 304.578 131.773C304.578 127.371 307.648 124.859 315.184 119.762C323.367 114.223 334.578 106.637 334.578 91.1797C334.578 75.7227 323.367 68.1406 315.184 62.6016C307.648 57.5039 304.578 54.9922 304.578 50.5898C304.578 46.1875 307.648 43.6758 315.184 38.5781C323.367 33.0391 334.578 25.457 334.578 10C334.578 4.48047 330.098 0 324.578 0C319.055 0 314.578 4.48047 314.578 10C314.578 14.4023 311.508 16.9141 303.973 22.0117C295.789 27.5508 284.578 35.1328 284.578 50.5898C284.578 66.0469 295.789 73.6289 303.973 79.168C311.508 84.2656 314.578 86.7773 314.578 91.1836C314.578 95.5859 311.508 98.0977 303.973 103.195V103.195Z" fill="#FF2930"/>
<path d="M453.414 229.445H416.832C417.984 222.332 418.734 215.09 419.055 207.734C430.574 203.711 438.863 192.742 438.863 179.867C438.863 163.594 425.621 150.352 409.344 150.352H54.0703C37.793 150.352 24.5547 163.594 24.5547 179.867C24.5547 192.742 32.8398 203.711 44.3594 207.734C44.6836 215.09 45.4336 222.332 46.582 229.441H10C4.47656 229.441 0 233.922 0 239.441C0 244.965 4.47656 249.441 10 249.441H50.957C64.7344 299.125 98.4883 340.582 142.992 364.578L119.332 408.984C119.316 409.012 119.305 409.035 119.289 409.062L75.0977 492H59.8828C54.3594 492 49.8828 496.48 49.8828 502C49.8828 507.523 54.3594 512 59.8828 512H102.316C107.84 512 112.316 507.523 112.316 502C112.316 496.48 107.84 492 102.316 492H97.7578L134.109 423.785H331.688L368.035 492H361.098C355.578 492 351.098 496.48 351.098 502C351.098 507.523 355.578 512 361.098 512H403.531C409.055 512 413.531 507.523 413.531 502C413.531 496.48 409.055 492 403.531 492H390.699L346.5 409.059C346.488 409.035 346.477 409.012 346.465 408.988L322.262 363.57C365.855 339.43 398.871 298.438 412.457 249.445H453.414C458.934 249.445 463.414 244.965 463.414 239.445C463.414 233.922 458.938 229.445 453.414 229.445V229.445ZM144.766 403.785L161.102 373.121C182.91 382.016 206.742 386.93 231.707 386.93C257.418 386.93 281.934 381.727 304.266 372.32L321.031 403.785H144.766ZM231.707 366.93C142.68 366.93 69.6445 297.137 64.457 209.387H398.957C393.77 297.137 320.738 366.93 231.707 366.93V366.93ZM409.344 189.387H54.0703C48.8242 189.387 44.5547 185.117 44.5547 179.867C44.5547 174.621 48.8242 170.352 54.0703 170.352H409.344C414.594 170.352 418.863 174.621 418.863 179.867C418.863 185.117 414.594 189.387 409.344 189.387Z" fill="black"/>
<path d="M231.707 349.332C283.645 349.332 331.172 322.969 358.848 278.812C361.781 274.133 360.367 267.961 355.684 265.027C351.004 262.094 344.832 263.512 341.902 268.191C317.906 306.473 276.715 329.332 231.707 329.332C226.184 329.332 221.707 333.809 221.707 339.332C221.707 344.852 226.184 349.332 231.707 349.332V349.332Z" fill="black"/>
<path d="M357.238 240.754C358.867 244.656 362.871 247.176 367.098 246.906C371.105 246.648 374.625 243.941 375.93 240.145C377.328 236.078 375.855 231.387 372.371 228.863C369.152 226.527 364.746 226.316 361.332 228.355C357.137 230.863 355.359 236.238 357.238 240.754Z" fill="black"/>
</svg>
