<svg width="512" height="512" viewBox="0 0 512 512" fill="none" xmlns="http://www.w3.org/2000/svg">
<g clip-path="url(#clip0)">
<path d="M439.845 379.145C437.346 380.618 434.716 381.83 432 382.79V512C442.622 509.021 458.925 503.092 474.031 490.674C499.226 469.964 512 439.583 512 400.376V306.085C506.31 315.381 499.841 324.362 492.601 332.967C468.627 361.459 444.448 376.433 439.845 379.145Z" fill="black"/>
<path d="M357 385.376C357 394.738 354.842 403.604 351.001 411.508L402 429.269V382.803L357 367.131V385.376Z" fill="black"/>
<path d="M237 325.34L0 242.802V289.268L237 371.806V325.34Z" fill="black"/>
<path d="M297 445.376C270.673 445.376 248.268 428.324 240.208 404.691L0 321.035V360.375C0 366.758 4.039 372.441 10.066 374.54L402 511.035V461.036L329.484 435.782C320.114 441.841 308.965 445.376 297 445.376Z" fill="black"/>
<path d="M172 125C172 160.841 201.159 190 237 190C272.841 190 302 160.841 302 125C302 93.917 280.064 67.875 250.864 61.504C246.667 36.687 231.015 15.241 207.93 3.69801L203.707 1.58701C196.301 -2.11699 187.289 0.88601 183.583 8.29501C179.878 15.704 182.881 24.715 190.291 28.419L194.514 30.53C207.524 37.036 216.746 48.588 220.335 62.175C192.544 69.553 172 94.918 172 125Z" fill="#FF2930"/>
<path d="M512 200.376C512 196.234 511.007 98.362 424.615 47.453C420.811 45.211 416.213 44.76 412.045 46.218C399.439 50.63 364.388 62.838 319.746 78.377C327.542 92.159 332 108.068 332 125C332 177.383 289.383 220 237 220C189.663 220 150.305 185.197 143.161 139.836C81.811 161.191 29.625 179.365 10.045 186.218C4.024 188.325 -0.00499535 194.009 4.64848e-06 200.388C0.00500465 206.766 4.043 212.444 10.066 214.541L267 304.02V385.375C267 401.944 280.431 415.375 297 415.375C313.569 415.375 327 401.944 327 385.375V324.915L412.066 354.54C413.67 355.1 415.337 355.375 416.999 355.375C419.648 355.375 422.282 354.673 424.615 353.298C428.184 351.196 512 300.65 512 200.376ZM352 210.376C343.716 210.376 337 203.66 337 195.376C337 187.092 343.716 180.376 352 180.376C360.284 180.376 367 187.092 367 195.376C367 203.66 360.284 210.376 352 210.376ZM382 280.376C373.716 280.376 367 273.66 367 265.376C367 257.092 373.716 250.376 382 250.376C390.284 250.376 397 257.092 397 265.376C397 273.66 390.284 280.376 382 280.376ZM412 150.376C403.716 150.376 397 143.66 397 135.376C397 127.092 403.716 120.376 412 120.376C420.284 120.376 427 127.092 427 135.376C427 143.66 420.284 150.376 412 150.376ZM432 220.376C423.716 220.376 417 213.66 417 205.376C417 197.092 423.716 190.376 432 190.376C440.284 190.376 447 197.092 447 205.376C447 213.66 440.284 220.376 432 220.376Z" fill="black"/>
</g>
<defs>
<clipPath id="clip0">
<rect width="512" height="512" fill="white"/>
</clipPath>
</defs>
</svg>
