<svg width="512" height="512" viewBox="0 0 512 512" fill="none" xmlns="http://www.w3.org/2000/svg">
<path d="M420.195 199.73L255.925 264.34C282.335 279.48 306.305 296.01 327.555 313.72C360.045 340.81 389.715 376.3 410.745 411.11L440.515 215.95C442.255 204.569 430.968 195.499 420.195 199.73V199.73Z" fill="black"/>
<path d="M399.575 453.77C358.275 364.07 263.655 298.65 196.455 267.31C155.31 248.122 117.135 235.687 91.3511 228.428C80.3181 225.322 69.7651 234.639 71.4931 245.969L110.135 499.26C111.255 506.59 117.555 512 124.965 512H382.465C389.875 512 396.175 506.59 397.295 499.26C397.295 499.26 400.515 455.81 399.575 453.77V453.77Z" fill="black"/>
<path d="M138.195 110.664C138.195 103.256 132.19 97.25 124.781 97.25H106.608C99.2001 97.25 93.1941 103.255 93.1941 110.664V196.87C109.704 200.69 123.674 204.67 138.194 209.81V110.664H138.195Z" fill="#FF2930"/>
<path d="M208.195 44.854C208.195 37.446 202.19 31.44 194.781 31.44H176.608C169.2 31.44 163.194 37.445 163.194 44.854V219.53C176.174 224.95 190.634 231.5 208.194 239.68V44.854H208.195Z" fill="#FF2930"/>
<path d="M278.195 13.414C278.195 6.005 272.19 0 264.782 0H246.609C239.201 0 233.195 6.005 233.195 13.414V241.13L278.195 223.341V13.414Z" fill="#FF2930"/>
<path d="M348.195 110.664C348.195 103.256 342.19 97.25 334.781 97.25H316.608C309.2 97.25 303.194 103.255 303.194 110.664V213.51L348.194 195.81V110.664H348.195Z" fill="#FF2930"/>
<path d="M418.195 169.31V76.874C418.195 69.466 412.19 63.46 404.781 63.46H386.608C379.2 63.46 373.194 69.465 373.194 76.874V185.98C412.547 170.504 412.13 170.344 418.195 169.31Z" fill="#FF2930"/>
</svg>
