<svg width="720" height="692" viewBox="0 0 720 692" fill="none" xmlns="http://www.w3.org/2000/svg">
<g clip-path="url(#clip0)">
<path d="M154.371 111C154.371 111 171.477 126.467 136.388 224.613L130.545 329.29L136.388 349.513L130.545 372.713C127.978 369.996 126.266 366.585 125.621 362.903C124.975 359.221 125.426 355.431 126.916 352.003C126.916 352.003 109.046 362.014 103.69 350.101L111.424 325.724L101 230.619L120.909 131.823C120.909 131.823 125.914 110.975 154.371 111Z" fill="#F5B58F"/>
<path d="M124.975 353.792C123.274 352.829 121.672 354.368 120.308 354.944C121.947 350.814 119.444 343.03 113.901 344.469L113.275 344.682C113.602 344.071 113.74 343.377 113.672 342.688C113.604 341.998 113.334 341.344 112.894 340.809C112.455 340.273 111.867 339.88 111.204 339.678C110.541 339.477 109.834 339.476 109.171 339.677C106.668 340.402 105.254 342.843 103.965 344.82C102.463 347.11 100.661 349.688 101.462 352.453C101.799 353.779 102.575 354.951 103.663 355.778C104.752 356.605 106.089 357.039 107.456 357.008C107.581 359.423 107.619 361.238 109.596 362.902C111.035 364.154 112.812 364.754 114.251 363.19C112.712 366.056 112.737 370.473 115.265 372.688C118.381 375.416 120.27 372.788 122.072 370.335C123.935 368.17 125.366 365.668 126.289 362.965C126.94 360.687 127.703 355.344 124.975 353.792Z" fill="#F5B58F"/>
<path d="M136.388 349.425L130.569 372.663C127.991 369.948 126.269 366.534 125.619 362.846C124.969 359.158 125.42 355.361 126.915 351.928C126.915 351.928 127.604 340.753 125.664 341.541C126.502 338.476 126.177 347.41 128.78 345.796C130.344 344.858 132.684 343.293 134.549 343.043L136.388 349.425Z" fill="#F5B58F"/>
<path d="M112.4 692.338L368.77 443.401L483.646 534.351L642.258 367.48L673.73 393.709L702.963 249L557.74 297.027L586.885 321.329L478.753 435.355L371.11 348.284L-1 692.275L112.4 692.338Z" fill="#FF2930" fill-opacity="0.44"/>
<path d="M146.595 301.215C146.595 301.215 161.962 350.256 129.238 486.006L131.491 602.271L133.618 642.553H114.56C113.244 636.919 111.517 631.39 109.391 626.01C107.302 620.466 104.148 613.108 101.558 605.425C91.6969 576.167 80.91 533.996 83.2751 492.951C83.2751 492.951 56.308 380.327 69.1471 312.352C69.2097 312.352 104.373 279.316 146.595 301.215Z" fill="#9B2929"/>
<path d="M13.2857 263.348C13.2857 263.348 -20.5891 332.95 19.8429 463.831C21.5263 469.179 21.583 474.907 20.0056 480.287C16.1013 493.339 8.74317 521.169 16.6894 597.553C17.9408 609.254 24.4104 627.799 26.1248 641.589C26.6003 645.344 27.1634 650.186 27.7015 654.166L40.2153 653.39L48.1991 599.118L64.467 475.757C64.467 475.757 88.7938 369.315 94.3749 295.984L13.2857 263.348Z" fill="#9B2929"/>
<path d="M90.6834 81.8981C90.6834 81.8981 143.141 20.3929 218.099 113.883C218.099 113.883 214.344 138.911 191.469 175.726C191.469 175.726 178.843 202.481 154.391 203.682C154.391 203.682 138.874 269.692 146.595 301.215C146.595 301.215 63.7788 350.381 2.88672 263.348C2.88672 263.348 35.4225 214.106 47.2606 173.511C47.2731 173.511 57.3842 116.536 90.6834 81.8981Z" fill="#F5B58F"/>
<path d="M191.482 175.727C196.245 168.078 200.601 160.183 204.534 152.076C204.621 151.362 204.671 150.649 204.784 149.936C206.173 140.613 206.098 130.614 206.185 121.154C206.185 114.622 207.074 108.202 207.612 101.758C205.572 99.5428 203.558 97.4279 201.555 95.4382C201.555 97.09 201.555 98.7419 201.555 100.444C201.555 115.022 203.07 131.566 197.313 145.155C193.196 154.879 187.302 166.629 175.489 167.342C169.733 167.68 163.113 167.68 158.871 163.488C156.488 161.059 154.715 158.098 153.699 154.85C152.683 151.602 152.453 148.16 153.027 144.805C155.042 131.691 157.169 118.664 157.807 105.287C158.358 93.6237 160.723 74.8656 152.239 66.0058C151.412 65.1284 150.53 64.3049 149.598 63.5406C143.103 62.1027 136.42 61.7099 129.801 62.3768L130.777 62.6396C141.727 65.5178 149.248 75.6665 145.907 86.9163C142.44 98.5792 135.558 110.305 128.312 120.316C120.053 131.703 109.316 143.654 94.1621 139.825C80.397 136.358 77.2185 122.518 75.5041 110.43C75.1302 107.631 74.9796 104.806 75.0536 101.983C54.0805 134.944 47.223 173.499 47.223 173.499C35.3349 214.094 2.84912 263.336 2.84912 263.336C63.7412 350.369 146.557 301.202 146.557 301.202C138.824 269.68 154.353 203.67 154.353 203.67C178.843 202.481 191.482 175.727 191.482 175.727Z" fill="#FF6969"/>
<path d="M239.473 84.3508C231.689 90.3574 238.647 111.043 240.811 118.201C243.965 128.625 249.296 142.415 246.405 154.002C242.776 168.493 225.582 168.418 215.121 161.511C204.434 154.403 201.756 143.691 201.193 131.853C200.842 124.47 201.581 117.024 201.193 109.654C200.78 101.958 196.525 97.0523 195.649 89.9069C193.522 72.7005 226.471 68.6335 236.407 78.2566" fill="#2C1200"/>
<g clip-path="url(#clip1)">
<path d="M229.794 372.835C231.749 365.814 233.146 358.63 233.963 351.388C234.315 347.874 232.292 344.503 229.028 344.001C217.429 342.57 205.83 341.142 194.232 339.713C191.18 339.338 188.237 341.447 187.658 344.424C187.305 346.242 186.951 348.06 186.598 349.878L177.924 348.192C177.17 345.775 175.148 343.838 172.488 343.321L126.233 334.33C122.376 333.58 118.642 336.099 117.892 339.955C117.143 343.812 119.662 347.545 123.518 348.295L169.774 357.286C172.434 357.803 175.035 356.765 176.639 354.806L185.313 356.492C184.959 358.31 184.606 360.128 184.253 361.945C183.674 364.923 185.613 367.982 188.583 368.777C199.872 371.797 211.162 374.816 222.451 377.836C225.666 378.594 228.804 376.224 229.794 372.835ZM196.041 351.714C195.562 351.642 195.161 351.372 194.91 351C194.685 350.667 194.58 350.253 194.644 349.825C194.78 348.918 195.625 348.293 196.532 348.429L224.371 352.599C225.278 352.736 225.903 353.581 225.767 354.488C225.631 355.395 224.786 356.02 223.879 355.884L196.041 351.714ZM221.355 368.119L193.981 361.557C193.561 361.456 193.216 361.204 192.992 360.871C192.741 360.499 192.641 360.026 192.754 359.555C192.968 358.663 193.864 358.113 194.756 358.327L222.129 364.889C223.021 365.103 223.571 365.999 223.357 366.891C223.143 367.783 222.247 368.332 221.355 368.119Z" fill="#FF2930"/>
</g>
<path d="M101.395 93.6489C101.395 93.6489 120.466 53.6048 146.632 79.5959C146.632 79.5959 160.01 97.6533 131.729 140.05C131.729 140.05 97.3908 188.754 90.7084 211.378C90.2755 212.859 90.337 214.441 90.8836 215.883C95.2885 227.671 116.85 284.822 126.961 302.379C126.961 302.379 145.844 323.79 151.275 336.879C151.275 336.879 93.5866 355.299 109.654 313.003L52.2035 219.325C51.1894 217.676 50.5396 215.829 50.2979 213.908C50.0562 211.987 50.228 210.036 50.802 208.187C55.5197 193.083 70.1983 150.361 101.395 93.6489Z" fill="#F5B58F"/>
<path d="M129.238 329.771L119.928 332.549L107.214 329.771C108.301 333.897 108.301 338.234 107.214 342.36H107.277C107.179 343.291 107.251 344.232 107.489 345.138C108.741 349.993 113.045 350.144 117.288 350.068C121.652 349.912 126.013 350.461 130.202 351.695C134.044 352.847 138.211 352.746 141.552 349.931C142.851 348.774 143.968 347.428 144.868 345.939L151.288 336.866L129.238 329.771Z" fill="#F5B58F"/>
<path d="M16.8271 598.567C17.7407 609.83 18.6542 621.092 20.2059 632.217C21.232 638.357 21.9296 644.548 22.2957 650.762C22.6547 657 21.6247 663.24 19.2798 669.032C18.2662 671.347 16.9648 673.537 15.7259 675.74C14.914 677.157 14.1748 678.615 13.511 680.107C12.6938 681.662 12.4082 683.442 12.6976 685.175C13.4234 688.028 16.5894 689.467 19.455 690.093C23.4788 690.825 27.5675 691.14 31.656 691.031L45.4211 691.094C48.0991 691.094 50.8897 691.094 53.2673 689.843C54.3656 689.263 55.3204 688.444 56.0618 687.448C56.8032 686.451 57.3125 685.302 57.5524 684.083C57.7923 682.864 57.7567 681.607 57.4483 680.404C57.14 679.201 56.5666 678.082 55.77 677.129C54.1432 675.164 51.6905 674.05 49.9011 672.223C47.9332 669.962 46.6333 667.198 46.1469 664.24C44.6953 657.707 45.0332 650.925 45.3836 644.217L46.7226 618.477L47.4108 605.362C47.5359 603.035 48.1867 599.105 48.1867 599.105L16.8271 598.567Z" fill="#F5B58F"/>
<path d="M98.5922 598.442H121.23H131.966C131.966 598.442 132.567 605.7 132.567 607.815C132.567 621.98 133.18 636.434 137.835 649.949C139.087 653.553 140.814 657.319 144.092 659.159C145.581 659.985 147.296 660.41 148.797 661.186C150.268 661.989 151.48 663.194 152.291 664.66C153.103 666.126 153.481 667.792 153.381 669.465C153.282 671.138 152.708 672.748 151.728 674.107C150.748 675.466 149.402 676.518 147.846 677.141C145.682 677.853 143.4 678.142 141.126 677.992L118.864 677.917C120.404 664.152 116.912 650.387 112.282 637.41C107.652 624.433 101.908 611.857 98.5922 598.442Z" fill="#F5B58F"/>
<path d="M191.482 44.795L212.167 80.9097L223.818 104.523C223.818 104.523 210.29 84.6889 181.684 107.364L154.153 64.7044C154.153 64.7044 180.482 73.5641 191.482 44.795Z" fill="#F5B58F"/>
<path d="M191.482 44.7949C191.482 44.7949 210.678 -20.7523 262.735 7.25356C262.735 7.25356 302.779 20.7935 268.329 83.3498C265.726 88.08 266.327 98.6166 262.785 103.86L253.801 97.7282C253.801 97.7282 237.783 116.949 227.522 109.291L191.895 63.3778L191.482 44.7949Z" fill="#F5B58F"/>
<path d="M282.244 40.3524C273.56 48.4113 256.353 59.1231 231.138 51.377C224.69 59.8748 216.179 66.5856 206.411 70.8735C204.188 71.8443 201.89 72.6352 199.541 73.2386C187.377 76.5172 172.01 75.7414 154.153 64.7042C154.153 64.7042 180.432 73.6015 191.482 44.7948C191.482 44.7948 210.666 -20.7148 262.81 7.25345C262.76 7.24094 282.883 14.0484 282.244 40.3524Z" fill="#2C1200"/>
<path d="M273.822 15.1248C273.737 17.9527 273.373 20.7654 272.734 23.5215C268.854 39.1762 255.965 44.457 241.362 44.457C228.335 44.457 213.231 44.457 207.374 30.5167C205.867 26.8263 205.02 22.8999 204.871 18.9164C199.034 26.7596 194.519 35.5056 191.507 44.8074C180.482 73.5891 154.178 64.7169 154.178 64.7169C172.06 75.6914 187.402 76.5299 199.566 73.2513C201.91 72.6554 204.203 71.8729 206.423 70.9112C216.2 66.6269 224.72 59.9159 231.175 51.4147C256.391 59.2108 273.597 48.4489 282.282 40.3901C282.544 28.1891 278.377 20.1928 273.822 15.1248Z" fill="#2C1200"/>
<path d="M221.089 46.6718C216.922 53.7921 217.147 61.6883 221.615 64.2787C226.082 66.869 233.065 63.2275 237.195 56.1197C241.324 49.0119 241.136 41.1032 236.669 38.5003C232.202 35.8974 225.244 39.5515 221.089 46.6718Z" fill="#F5B58F"/>
<path d="M140.138 654.942C140.138 654.942 149.46 664.465 159.935 665.529C170.409 666.592 188.503 674.576 176.803 680.345C165.103 686.114 118.752 686.789 110.267 683.548C101.783 680.307 117.137 653.002 117.137 653.002C120.207 655.841 124.138 657.574 128.304 657.925C132.471 658.277 136.636 657.227 140.138 654.942Z" fill="black"/>
<path d="M21.5326 659.322C23.1584 660.613 24.9516 661.678 26.8634 662.488C29.9244 663.888 33.2852 664.507 36.6443 664.289C40.0034 664.07 43.2558 663.022 46.1096 661.236C46.1096 661.236 53.8682 670.759 64.3297 671.823C74.7912 672.887 92.8986 680.87 81.1982 686.639C78.6317 687.759 75.938 688.562 73.1769 689.029C55.5825 692.521 21.7953 692.558 14.6625 689.843C6.16562 686.639 21.5326 659.322 21.5326 659.322Z" fill="black"/>
<path d="M310.904 395.972C304.193 399.997 295 405.508 295 416.734C295 420.748 298.671 424 303.2 424C307.729 424 311.4 420.748 311.4 416.734C311.4 413.536 313.915 411.711 320.093 408.008C326.807 403.984 336 398.472 336 387.243C336 376.013 326.807 370.505 320.093 366.481C313.915 362.777 311.4 360.952 311.4 357.754C311.4 354.556 313.915 352.731 320.093 349.027C326.807 345.003 336 339.495 336 328.265C336 324.255 332.326 321 327.8 321C323.271 321 319.6 324.255 319.6 328.265C319.6 331.463 317.083 333.288 310.904 336.992C304.193 341.016 295 346.524 295 357.754C295 368.984 304.19 374.492 310.904 378.516C317.083 382.22 319.6 384.045 319.6 387.246C319.6 390.444 317.083 392.269 310.904 395.972Z" fill="#FF2930"/>
<path d="M366.129 395.972C359.747 399.997 351.003 405.505 351.003 416.734C351.003 420.748 354.494 424 358.802 424C363.11 424 366.602 420.748 366.602 416.734C366.602 413.536 368.993 411.711 374.87 408.008C381.256 403.984 390 398.472 390 387.243C390 376.013 381.256 370.505 374.87 366.481C368.993 362.777 366.598 360.952 366.598 357.754C366.598 354.556 368.993 352.731 374.87 349.027C381.256 345.003 390 339.492 390 328.265C390 324.252 386.506 321 382.201 321C377.893 321 374.402 324.252 374.402 328.265C374.402 331.461 372.007 333.288 366.129 336.992C359.744 341.016 351 346.524 351 357.754C351 368.981 359.744 374.492 366.129 378.514C372.007 382.22 374.402 384.045 374.402 387.243C374.402 390.444 372.01 392.269 366.129 395.972Z" fill="#FF2930"/>
<path d="M421.515 395.972C414.968 399.997 406 405.508 406 416.734C406 420.748 409.581 424 414 424C418.419 424 422 420.748 422 416.734C422 413.536 424.456 411.711 430.484 408.008C437.031 403.984 446 398.472 446 387.243C446 376.013 437.031 370.505 430.484 366.481C424.456 362.777 422 360.952 422 357.754C422 354.556 424.456 352.731 430.484 349.027C437.031 345.003 446 339.495 446 328.265C446 324.255 442.415 321 438 321C433.581 321 430 324.255 430 328.265C430 331.463 427.544 333.288 421.515 336.992C414.968 341.016 406 346.524 406 357.754C406 368.984 414.968 374.492 421.515 378.516C427.544 382.22 430 384.045 430 387.246C430 390.444 427.544 392.269 421.515 395.972Z" fill="#FF2930"/>
<path d="M540.994 487.3H511.707C512.63 482.147 513.23 476.901 513.487 471.572C522.709 468.657 529.345 460.71 529.345 451.383C529.345 439.593 518.744 430 505.712 430H221.288C208.256 430 197.658 439.593 197.658 451.383C197.658 460.71 204.291 468.657 213.513 471.572C213.773 476.901 214.373 482.147 215.293 487.298H186.006C181.584 487.298 178 490.543 178 494.542C178 498.544 181.584 501.787 186.006 501.787H218.795C229.825 537.781 256.848 567.815 292.476 585.199L273.535 617.37C273.522 617.389 273.513 617.406 273.5 617.426L238.122 677.511H225.941C221.519 677.511 217.935 680.757 217.935 684.756C217.935 688.757 221.519 692 225.941 692H259.913C264.334 692 267.918 688.757 267.918 684.756C267.918 680.757 264.334 677.511 259.913 677.511H256.263L285.365 628.092H443.542L472.641 677.511H467.087C462.669 677.511 459.082 680.757 459.082 684.756C459.082 688.757 462.669 692 467.087 692H501.059C505.481 692 509.065 688.757 509.065 684.756C509.065 680.757 505.481 677.511 501.059 677.511H490.786L455.401 617.423C455.391 617.406 455.382 617.389 455.373 617.372L435.996 584.469C470.896 566.98 497.328 537.283 508.205 501.79H540.994C545.413 501.79 549 498.544 549 494.545C549 490.543 545.416 487.3 540.994 487.3ZM293.896 613.603L306.974 591.388C324.434 597.831 343.514 601.392 363.5 601.392C384.084 601.392 403.71 597.622 421.589 590.807L435.011 613.603H293.896ZM363.5 586.903C292.226 586.903 233.756 536.34 229.603 472.769H497.397C493.244 536.34 434.777 586.903 363.5 586.903ZM505.712 458.28H221.288C217.088 458.28 213.67 455.186 213.67 451.383C213.67 447.582 217.088 444.49 221.288 444.49H505.712C509.915 444.49 513.333 447.582 513.333 451.383C513.333 455.186 509.915 458.28 505.712 458.28Z" fill="black"/>
<path d="M363.933 575C405.132 575 442.833 555.65 464.787 523.24C467.114 519.805 465.993 515.275 462.277 513.121C458.565 510.968 453.669 512.009 451.346 515.444C432.31 543.542 399.635 560.321 363.933 560.321C359.551 560.321 356 563.606 356 567.66C356 571.711 359.551 575 363.933 575Z" fill="black"/>
<path d="M464.561 495.673C465.785 498.409 468.793 500.175 471.969 499.986C474.981 499.805 477.625 497.908 478.606 495.246C479.657 492.395 478.55 489.105 475.932 487.336C473.513 485.698 470.203 485.55 467.637 486.98C464.484 488.739 463.149 492.507 464.561 495.673Z" fill="black"/>
</g>
<defs>
<clipPath id="clip0">
<rect width="720" height="692" fill="white"/>
</clipPath>
<clipPath id="clip1">
<rect width="93.6938" height="93.6938" fill="white" transform="translate(192.676 287) rotate(56)"/>
</clipPath>
</defs>
</svg>
