<svg width="177" height="61" viewBox="0 0 177 61" fill="none" xmlns="http://www.w3.org/2000/svg">
<path d="M71.0498 33.8428C71.0498 33.2913 70.8529 32.8617 70.459 32.5537C70.0723 32.2458 69.3883 31.9271 68.4072 31.5977C67.4261 31.2682 66.624 30.9495 66.001 30.6416C63.9743 29.6462 62.9609 28.2783 62.9609 26.5381C62.9609 25.6715 63.2116 24.9089 63.7129 24.25C64.2214 23.584 64.9375 23.0684 65.8613 22.7031C66.7852 22.3307 67.8236 22.1445 68.9766 22.1445C70.1009 22.1445 71.1071 22.3451 71.9951 22.7461C72.8903 23.1471 73.585 23.7201 74.0791 24.4648C74.5732 25.2025 74.8203 26.0475 74.8203 27H71.0605C71.0605 26.3626 70.8636 25.8685 70.4697 25.5176C70.083 25.1667 69.5566 24.9912 68.8906 24.9912C68.2174 24.9912 67.6839 25.1416 67.29 25.4424C66.9033 25.736 66.71 26.112 66.71 26.5703C66.71 26.9714 66.9248 27.3366 67.3545 27.666C67.7842 27.9883 68.5397 28.3249 69.6211 28.6758C70.7025 29.0195 71.5905 29.3919 72.2852 29.793C73.9753 30.7669 74.8203 32.1097 74.8203 33.8213C74.8203 35.1891 74.3047 36.2633 73.2734 37.0439C72.2422 37.8245 70.8278 38.2148 69.0303 38.2148C67.7627 38.2148 66.6133 37.9893 65.582 37.5381C64.5579 37.0798 63.7845 36.4567 63.2617 35.6689C62.7461 34.874 62.4883 33.9609 62.4883 32.9297H66.2695C66.2695 33.7676 66.4844 34.387 66.9141 34.7881C67.3509 35.182 68.0563 35.3789 69.0303 35.3789C69.6533 35.3789 70.1439 35.2464 70.502 34.9814C70.8672 34.7093 71.0498 34.3298 71.0498 33.8428ZM80.0088 26.377L80.127 27.7412C80.9505 26.6885 82.057 26.1621 83.4463 26.1621C84.9144 26.1621 85.9062 26.7458 86.4219 27.9131C87.2096 26.7458 88.3483 26.1621 89.8379 26.1621C92.194 26.1621 93.4043 27.5872 93.4688 30.4375V38H89.8379V30.6631C89.8379 30.0687 89.7376 29.6354 89.5371 29.3633C89.3366 29.0911 88.9714 28.9551 88.4414 28.9551C87.7253 28.9551 87.1917 29.2738 86.8408 29.9111L86.8516 30.0615V38H83.2207V30.6846C83.2207 30.0758 83.124 29.6354 82.9307 29.3633C82.7373 29.0911 82.3685 28.9551 81.8242 28.9551C81.1296 28.9551 80.5996 29.2738 80.2344 29.9111V38H76.6143V26.377H80.0088ZM95.0801 32.0811C95.0801 30.9209 95.3057 29.8896 95.7568 28.9873C96.208 28.0778 96.8561 27.3796 97.7012 26.8926C98.5462 26.4056 99.5381 26.1621 100.677 26.1621C102.417 26.1621 103.788 26.7028 104.791 27.7842C105.794 28.8584 106.295 30.3229 106.295 32.1777V32.3066C106.295 34.1185 105.79 35.5579 104.78 36.625C103.778 37.6849 102.417 38.2148 100.698 38.2148C99.0439 38.2148 97.7155 37.7207 96.7129 36.7324C95.7103 35.737 95.1696 34.3906 95.0908 32.6934L95.0801 32.0811ZM98.7002 32.3066C98.7002 33.3809 98.8685 34.1686 99.2051 34.6699C99.5417 35.1712 100.039 35.4219 100.698 35.4219C101.987 35.4219 102.646 34.43 102.675 32.4463V32.0811C102.675 29.9971 102.009 28.9551 100.677 28.9551C99.4665 28.9551 98.8112 29.8538 98.7109 31.6514L98.7002 32.3066ZM112.558 33.6709L111.537 34.6914V38H107.917V21.4893H111.537V30.2549L111.902 29.7715L114.631 26.377H118.971L114.899 31.1572L119.239 38H115.093L112.558 33.6709ZM123.74 38H120.109V26.377H123.74V38ZM119.895 23.3799C119.895 22.8643 120.081 22.4417 120.453 22.1123C120.826 21.7829 121.309 21.6182 121.903 21.6182C122.498 21.6182 122.981 21.7829 123.354 22.1123C123.726 22.4417 123.912 22.8643 123.912 23.3799C123.912 23.8955 123.726 24.318 123.354 24.6475C122.981 24.9769 122.498 25.1416 121.903 25.1416C121.309 25.1416 120.826 24.9769 120.453 24.6475C120.081 24.318 119.895 23.8955 119.895 23.3799ZM129.305 26.377L129.423 27.7412C130.225 26.6885 131.331 26.1621 132.742 26.1621C133.952 26.1621 134.855 26.5238 135.449 27.2471C136.051 27.9704 136.362 29.0589 136.384 30.5127V38H132.753V30.6631C132.753 30.0758 132.635 29.6462 132.398 29.374C132.162 29.0947 131.732 28.9551 131.109 28.9551C130.4 28.9551 129.874 29.2344 129.53 29.793V38H125.91V26.377H129.305ZM144.043 38V22.3594H149.661C151.674 22.3594 153.202 22.7282 154.248 23.4658C155.301 24.2035 155.827 25.2741 155.827 26.6777C155.827 27.487 155.641 28.1781 155.269 28.751C154.896 29.3239 154.348 29.7464 153.625 30.0186C154.441 30.2334 155.068 30.6344 155.505 31.2217C155.942 31.8089 156.16 32.5251 156.16 33.3701C156.16 34.9027 155.673 36.0557 154.699 36.8291C153.732 37.5954 152.297 37.9857 150.392 38H144.043ZM147.813 31.3506V35.0996H150.284C150.965 35.0996 151.487 34.9456 151.853 34.6377C152.218 34.3226 152.4 33.8822 152.4 33.3164C152.4 32.013 151.752 31.3577 150.456 31.3506H147.813ZM147.813 28.8799H149.779C150.603 28.8727 151.19 28.7223 151.541 28.4287C151.892 28.1351 152.067 27.7018 152.067 27.1289C152.067 26.4701 151.878 25.9974 151.498 25.7109C151.118 25.4173 150.506 25.2705 149.661 25.2705H147.813V28.8799ZM159.361 27.2578L157.771 26.3984C158.366 25.3672 158.67 24.3574 158.685 23.3691V21.5H161.327V23.251C161.327 23.917 161.134 24.6296 160.747 25.3887C160.368 26.1406 159.906 26.7637 159.361 27.2578ZM167.021 34.7344C167.021 34.4264 166.859 34.1794 166.537 33.9932C166.215 33.807 165.603 33.6136 164.7 33.4131C163.798 33.2126 163.053 32.9512 162.466 32.6289C161.879 32.2995 161.431 31.902 161.123 31.4365C160.815 30.971 160.661 30.4375 160.661 29.8359C160.661 28.7689 161.102 27.8916 161.982 27.2041C162.863 26.5094 164.016 26.1621 165.441 26.1621C166.974 26.1621 168.206 26.5094 169.137 27.2041C170.068 27.8988 170.533 28.8118 170.533 29.9434H166.902C166.902 29.0124 166.412 28.5469 165.431 28.5469C165.051 28.5469 164.732 28.6543 164.475 28.8691C164.217 29.0768 164.088 29.3382 164.088 29.6533C164.088 29.9756 164.245 30.237 164.561 30.4375C164.876 30.638 165.377 30.8027 166.064 30.9316C166.759 31.0605 167.368 31.2145 167.891 31.3936C169.638 31.9951 170.512 33.0729 170.512 34.627C170.512 35.6868 170.039 36.5498 169.094 37.2158C168.156 37.8818 166.938 38.2148 165.441 38.2148C164.446 38.2148 163.558 38.0358 162.777 37.6777C161.997 37.3197 161.388 36.8327 160.951 36.2168C160.514 35.6009 160.296 34.9528 160.296 34.2725H163.68C163.694 34.8096 163.873 35.2035 164.217 35.4541C164.561 35.6976 165.001 35.8193 165.538 35.8193C166.032 35.8193 166.401 35.7191 166.645 35.5186C166.895 35.318 167.021 35.0566 167.021 34.7344Z" fill="#ff2930"/>
<path d="M19.7021 14.0854C18.7308 14.6805 17.4002 15.4953 17.4002 17.1553C17.4002 17.7487 17.9315 18.2296 18.5871 18.2296C19.2426 18.2296 19.7739 17.7487 19.7739 17.1553C19.7739 16.6824 20.1379 16.4126 21.0322 15.865C22.0039 15.27 23.3345 14.4551 23.3345 12.7947C23.3345 11.1343 22.0039 10.3198 21.0322 9.72478C20.1379 9.17718 19.7739 8.90736 19.7739 8.43446C19.7739 7.96155 20.1379 7.69173 21.0322 7.14413C22.0039 6.54912 23.3345 5.73464 23.3345 4.07422C23.3345 3.4813 22.8027 3 22.1476 3C21.4921 3 20.9608 3.4813 20.9608 4.07422C20.9608 4.54713 20.5964 4.81694 19.7021 5.36454C18.7308 5.95956 17.4002 6.77403 17.4002 8.43446C17.4002 10.0949 18.7303 10.9094 19.7021 11.5044C20.5964 12.052 20.9608 12.3218 20.9608 12.7951C20.9608 13.268 20.5964 13.5378 19.7021 14.0854Z" fill="#ff2930"/>
<path d="M27.8894 14.0854C26.9182 14.6805 25.5876 15.4949 25.5876 17.1553C25.5876 17.7487 26.1189 18.2296 26.7745 18.2296C27.43 18.2296 27.9613 17.7487 27.9613 17.1553C27.9613 16.6824 28.3252 16.4126 29.2195 15.865C30.1913 15.27 31.5218 14.4551 31.5218 12.7947C31.5218 11.1343 30.1913 10.3198 29.2195 9.72478C28.3252 9.17718 27.9608 8.90736 27.9608 8.43446C27.9608 7.96155 28.3252 7.69173 29.2195 7.14413C30.1913 6.54912 31.5218 5.73422 31.5218 4.07422C31.5218 3.48088 30.9901 3 30.335 3C29.6795 3 29.1482 3.48088 29.1482 4.07422C29.1482 4.54671 28.7838 4.81694 27.8894 5.36454C26.9177 5.95956 25.5872 6.77403 25.5872 8.43446C25.5872 10.0945 26.9177 10.9094 27.8894 11.504C28.7838 12.052 29.1482 12.3218 29.1482 12.7947C29.1482 13.268 28.7842 13.5378 27.8894 14.0854Z" fill="#ff2930"/>
<path d="M36.0768 14.0854C35.1055 14.6805 33.775 15.4953 33.775 17.1553C33.775 17.7487 34.3063 18.2296 34.9618 18.2296C35.6174 18.2296 36.1487 17.7487 36.1487 17.1553C36.1487 16.6824 36.513 16.4126 37.4074 15.865C38.3786 15.27 39.7092 14.4551 39.7092 12.7947C39.7092 11.1343 38.3786 10.3198 37.4074 9.72478C36.513 9.17718 36.1487 8.90736 36.1487 8.43446C36.1487 7.96155 36.513 7.69173 37.4074 7.14413C38.3786 6.54912 39.7092 5.73464 39.7092 4.07422C39.7092 3.4813 39.1774 3 38.5223 3C37.8668 3 37.3355 3.4813 37.3355 4.07422C37.3355 4.54713 36.9711 4.81694 36.0768 5.36454C35.1055 5.95956 33.775 6.77403 33.775 8.43446C33.775 10.0949 35.1055 10.9094 36.0768 11.5044C36.9711 12.052 37.3355 12.3218 37.3355 12.7951C37.3355 13.268 36.9711 13.5378 36.0768 14.0854V14.0854Z" fill="#ff2930"/>
<path d="M53.8132 27.6474H49.4714C49.6082 26.8833 49.6972 26.1054 49.7352 25.3152C51.1024 24.883 52.0862 23.7047 52.0862 22.3217C52.0862 20.5735 50.5146 19.151 48.5827 19.151H6.4173C4.48543 19.151 2.91426 20.5735 2.91426 22.3217C2.91426 23.7047 3.89758 24.883 5.26476 25.3152C5.30324 26.1054 5.39226 26.8833 5.52856 27.647H1.18684C0.531298 27.647 0 28.1283 0 28.7212C0 29.3146 0.531298 29.7955 1.18684 29.7955H6.0478C7.68296 35.1326 11.689 39.586 16.9709 42.1637L14.1628 46.9339C14.161 46.9368 14.1596 46.9393 14.1577 46.9423L8.91292 55.8516H7.10715C6.45161 55.8516 5.92031 56.3329 5.92031 56.9258C5.92031 57.5191 6.45161 58 7.10715 58H12.1434C12.7989 58 13.3302 57.5191 13.3302 56.9258C13.3302 56.3329 12.7989 55.8516 12.1434 55.8516H11.6023L15.9167 48.5238H39.3661L43.68 55.8516H42.8566C42.2016 55.8516 41.6698 56.3329 41.6698 56.9258C41.6698 57.5191 42.2016 58 42.8566 58H47.8928C48.5484 58 49.0797 57.5191 49.0797 56.9258C49.0797 56.3329 48.5484 55.8516 47.8928 55.8516H46.3699L41.1241 46.9418C41.1227 46.9393 41.1213 46.9368 41.12 46.9343L38.2474 42.0554C43.4213 39.4622 47.3398 35.0587 48.9522 29.7959H53.8132C54.4682 29.7959 55 29.3146 55 28.7217C55 28.1283 54.4687 27.6474 53.8132 27.6474V27.6474ZM17.1814 46.3754L19.1202 43.0814C21.7086 44.0368 24.5371 44.5647 27.5 44.5647C30.5515 44.5647 33.4611 44.0058 36.1116 42.9953L38.1014 46.3754H17.1814ZM27.5 42.4163C16.9338 42.4163 8.26572 34.919 7.65004 25.4927H47.35C46.7343 34.919 38.0666 42.4163 27.5 42.4163V42.4163ZM48.5827 23.3443H6.4173C5.79467 23.3443 5.28794 22.8856 5.28794 22.3217C5.28794 21.7581 5.79467 21.2995 6.4173 21.2995H48.5827C49.2058 21.2995 49.7125 21.7581 49.7125 22.3217C49.7125 22.8856 49.2058 23.3443 48.5827 23.3443Z" fill="#ff2930"/>
<path d="M27.5 40.5259C33.6642 40.5259 39.3049 37.6939 42.5896 32.9506C42.9378 32.4479 42.77 31.7849 42.2141 31.4697C41.6587 31.1546 40.9262 31.3069 40.5785 31.8096C37.7305 35.9219 32.8417 38.3775 27.5 38.3775C26.8444 38.3775 26.3131 38.8583 26.3131 39.4517C26.3131 40.0446 26.8444 40.5259 27.5 40.5259V40.5259Z" fill="#ff2930"/>
<path d="M42.3986 28.8622C42.5919 29.2814 43.0671 29.5521 43.5687 29.5231C44.0444 29.4954 44.4621 29.2047 44.617 28.7968C44.783 28.36 44.6082 27.856 44.1946 27.5849C43.8126 27.334 43.2897 27.3113 42.8845 27.5304C42.3865 27.7998 42.1756 28.3772 42.3986 28.8622Z" fill="#ff2930"/>
</svg>
