<svg width="487" height="487" viewBox="0 0 487 487" fill="none" xmlns="http://www.w3.org/2000/svg">
<path d="M373.547 402.247C330.96 402.247 282.51 386.676 229.583 355.988C187.047 331.318 143.085 323.46 104.292 316.523C64.6615 309.409 24.2454 302.068 0.113525 274.648C2.66732 385.466 124.185 335.609 240.646 403.116C383.979 486.214 471.801 440.524 485.149 343.023C461.948 380.452 423.082 402.247 373.547 402.247Z" fill="black"/>
<path d="M122.593 259.345C159.494 265.321 201.306 272.084 243.345 294.138C287.153 317.102 326.566 328.754 360.499 328.765C390.7 328.765 415.566 319.118 432.43 300.9C448.766 283.24 457.389 257.98 457.389 227.831C457.389 136.864 360.282 62.8537 240.936 62.8537C106.629 62.8537 29.6118 109.692 29.6118 191.363C29.6015 244.281 66.5954 250.288 122.593 259.345ZM153.001 111.625C186.645 111.625 213.92 132.738 213.92 158.763C213.92 184.798 186.645 205.911 153.001 205.911C119.367 205.911 92.092 184.798 92.092 158.763C92.092 132.738 119.367 111.625 153.001 111.625Z" fill="black"/>
<path d="M240.646 336.891C396.666 427.341 487 365.242 487 249.75C487 134.258 376.721 40.6135 240.646 40.6135C104.582 40.6238 0 89.4365 0 204.939C0 320.441 122.934 268.661 240.646 336.891ZM240.936 52.5039C366 52.5039 467.738 131.146 467.738 227.82C467.738 260.617 458.143 288.316 440.029 307.92C421.149 328.32 393.667 339.114 360.509 339.114C324.891 339.114 283.854 327.059 238.548 303.298C198.007 282.051 157.074 275.423 120.949 269.571C64.1448 260.359 19.2827 253.09 19.2827 191.373C19.262 103.116 100.063 52.5039 240.936 52.5039Z" fill="black"/>
<path d="M153 182.14C169.674 182.14 183.19 171.678 183.19 158.773C183.19 145.868 169.674 135.406 153 135.406C136.326 135.406 122.809 145.868 122.809 158.773C122.809 171.678 136.326 182.14 153 182.14Z" fill="#FF2930"/>
</svg>
