<?xml version="1.0" encoding="iso-8859-1"?>
<!-- Generator: Adobe Illustrator 18.1.1, SVG Export Plug-In . SVG Version: 6.00 Build 0)  -->
<svg version="1.1" id="Capa_1" xmlns="http://www.w3.org/2000/svg" xmlns:xlink="http://www.w3.org/1999/xlink" x="0px" y="0px"
	 viewBox="0 0 282.078 282.078" style="enable-background:new 0 0 282.078 282.078;" xml:space="preserve">
<path d="M276.728,51.861c-14.234-16.699-29.813-32.281-46.513-46.512c-8.177-6.793-19.997-7.422-26.746-0.119
	c-23.096,26.541-46.189,53.086-69.281,79.631c-6.075,6.984-5.766,17.881,0.691,24.338c3.942,3.942,7.886,7.886,11.828,11.828
	l-18.81,18.811c-7.302-2.188-15.541-0.401-21.309,5.367L6.273,245.519c-8.363,8.363-8.364,21.924-0.001,30.287
	c8.364,8.363,21.923,8.361,30.287-0.002L136.874,175.49c5.768-5.768,7.556-14.007,5.367-21.309l18.811-18.811
	c3.942,3.942,7.884,7.884,11.826,11.826c6.456,6.457,17.355,6.768,24.34,0.693c26.544-23.094,53.086-46.189,79.631-69.281
	C284.151,71.859,283.52,60.039,276.728,51.861z M167.186,100.549c-0.986,1.075-2.335,1.621-3.687,1.621
	c-1.208,0-2.418-0.435-3.378-1.315c-2.035-1.866-2.173-5.029-0.307-7.064l57.277-62.461c1.868-2.036,5.03-2.171,7.064-0.306
	c2.035,1.866,2.173,5.029,0.307,7.064L167.186,100.549z M250.748,64.985l-62.461,57.275c-0.96,0.88-2.17,1.315-3.378,1.315
	c-1.352,0-2.7-0.545-3.686-1.621c-1.866-2.036-1.729-5.198,0.307-7.064l62.461-57.275c2.034-1.866,5.197-1.729,7.064,0.306
	C252.921,59.957,252.783,63.119,250.748,64.985z"/>
<g>
</g>
<g>
</g>
<g>
</g>
<g>
</g>
<g>
</g>
<g>
</g>
<g>
</g>
<g>
</g>
<g>
</g>
<g>
</g>
<g>
</g>
<g>
</g>
<g>
</g>
<g>
</g>
<g>
</g>
</svg>
